<?xml version="1.0" encoding="UTF-8" standalone="no"?>
<!DOCTYPE svg PUBLIC "-//W3C//DTD SVG 1.1//EN"
 "http://www.w3.org/Graphics/SVG/1.1/DTD/svg11.dtd">
<!-- Generated by graphviz version 2.38.0 (20140413.2041)
 -->
<!-- Title: %3 Pages: 1 -->
<svg width="266pt" height="188pt"
 viewBox="0.00 0.00 265.74 188.00" xmlns="http://www.w3.org/2000/svg" xmlns:xlink="http://www.w3.org/1999/xlink">
<g id="graph0" class="graph" transform="scale(1 1) rotate(0) translate(4 184)">
<title>%3</title>
<polygon fill="white" stroke="none" points="-4,4 -4,-184 261.741,-184 261.741,4 -4,4"/>
<!-- Symbol(x)_(1,) -->
<g id="node1" class="node"><title>Symbol(x)_(1,)</title>
<ellipse fill="none" stroke="black" cx="51.9954" cy="-90" rx="51.9908" ry="18"/>
<text text-anchor="middle" x="51.9954" y="-86.3" font-family="Times,serif" font-size="14.00">Symbol(&#39;x&#39;)</text>
</g>
<!-- Symbol(y)_(0, 1) -->
<g id="node2" class="node"><title>Symbol(y)_(0, 1)</title>
<ellipse fill="none" stroke="black" cx="89.9954" cy="-18" rx="51.9908" ry="18"/>
<text text-anchor="middle" x="89.9954" y="-14.3" font-family="Times,serif" font-size="14.00">Symbol(&#39;y&#39;)</text>
</g>
<!-- NegativeOne()_(0, 0) -->
<g id="node3" class="node"><title>NegativeOne()_(0, 0)</title>
<ellipse fill="none" stroke="black" cx="208.995" cy="-18" rx="48.9926" ry="18"/>
<text text-anchor="middle" x="208.995" y="-14.3" font-family="Times,serif" font-size="14.00">Integer(&#45;1)</text>
</g>
<!-- Mul(NegativeOne(), Symbol(y))_(0,) -->
<g id="node4" class="node"><title>Mul(NegativeOne(), Symbol(y))_(0,)</title>
<ellipse fill="none" stroke="black" cx="148.995" cy="-90" rx="27" ry="18"/>
<text text-anchor="middle" x="148.995" y="-86.3" font-family="Times,serif" font-size="14.00">Mul</text>
</g>
<!-- Mul(NegativeOne(), Symbol(y))_(0,)&#45;&gt;Symbol(y)_(0, 1) -->
<g id="edge1" class="edge"><title>Mul(NegativeOne(), Symbol(y))_(0,)&#45;&gt;Symbol(y)_(0, 1)</title>
<path fill="none" stroke="black" d="M136.193,-73.811C128.705,-64.9271 119.077,-53.5041 110.551,-43.3875"/>
<polygon fill="black" stroke="black" points="113.131,-41.0185 104.01,-35.6278 107.779,-45.5298 113.131,-41.0185"/>
</g>
<!-- Mul(NegativeOne(), Symbol(y))_(0,)&#45;&gt;NegativeOne()_(0, 0) -->
<g id="edge2" class="edge"><title>Mul(NegativeOne(), Symbol(y))_(0,)&#45;&gt;NegativeOne()_(0, 0)</title>
<path fill="none" stroke="black" d="M162.014,-73.811C169.629,-64.9271 179.42,-53.5041 188.092,-43.3875"/>
<polygon fill="black" stroke="black" points="190.892,-45.4982 194.743,-35.6278 185.578,-40.9427 190.892,-45.4982"/>
</g>
<!-- Add(Mul(NegativeOne(), Symbol(y)), Symbol(x))_() -->
<g id="node5" class="node"><title>Add(Mul(NegativeOne(), Symbol(y)), Symbol(x))_()</title>
<ellipse fill="none" stroke="black" cx="99.9954" cy="-162" rx="27" ry="18"/>
<text text-anchor="middle" x="99.9954" y="-158.3" font-family="Times,serif" font-size="14.00">Add</text>
</g>
<!-- Add(Mul(NegativeOne(), Symbol(y)), Symbol(x))_()&#45;&gt;Symbol(x)_(1,) -->
<g id="edge3" class="edge"><title>Add(Mul(NegativeOne(), Symbol(y)), Symbol(x))_()&#45;&gt;Symbol(x)_(1,)</title>
<path fill="none" stroke="black" d="M89.1034,-145.116C83.2585,-136.592 75.9173,-125.886 69.3105,-116.251"/>
<polygon fill="black" stroke="black" points="72.0555,-114.065 63.5136,-107.797 66.2823,-118.024 72.0555,-114.065"/>
</g>
<!-- Add(Mul(NegativeOne(), Symbol(y)), Symbol(x))_()&#45;&gt;Mul(NegativeOne(), Symbol(y))_(0,) -->
<g id="edge4" class="edge"><title>Add(Mul(NegativeOne(), Symbol(y)), Symbol(x))_()&#45;&gt;Mul(NegativeOne(), Symbol(y))_(0,)</title>
<path fill="none" stroke="black" d="M110.87,-145.465C117.15,-136.493 125.182,-125.019 132.253,-114.918"/>
<polygon fill="black" stroke="black" points="135.284,-116.691 138.151,-106.492 129.549,-112.677 135.284,-116.691"/>
</g>
</g>
</svg>
