<?xml version="1.0" encoding="UTF-8" standalone="no"?>
<!DOCTYPE svg PUBLIC "-//W3C//DTD SVG 1.1//EN"
 "http://www.w3.org/Graphics/SVG/1.1/DTD/svg11.dtd">
<!-- Generated by graphviz version 2.38.0 (20140413.2041)
 -->
<!-- Title: %3 Pages: 1 -->
<svg width="466pt" height="188pt"
 viewBox="0.00 0.00 465.99 188.00" xmlns="http://www.w3.org/2000/svg" xmlns:xlink="http://www.w3.org/1999/xlink">
<g id="graph0" class="graph" transform="scale(1 1) rotate(0) translate(4 184)">
<title>%3</title>
<polygon fill="white" stroke="none" points="-4,4 -4,-184 461.991,-184 461.991,4 -4,4"/>
<!-- Add(Pow(Symbol(&#39;x&#39;), Integer(2)), Mul(Symbol(&#39;x&#39;), Symbol(&#39;y&#39;)))_() -->
<g id="node1" class="node"><title>Add(Pow(Symbol(&#39;x&#39;), Integer(2)), Mul(Symbol(&#39;x&#39;), Symbol(&#39;y&#39;)))_()</title>
<ellipse fill="none" stroke="black" cx="225.995" cy="-162" rx="27" ry="18"/>
<text text-anchor="middle" x="225.995" y="-158.3" font-family="Times,serif" font-size="14.00">Add</text>
</g>
<!-- Pow(Symbol(&#39;x&#39;), Integer(2))_(0,) -->
<g id="node2" class="node"><title>Pow(Symbol(&#39;x&#39;), Integer(2))_(0,)</title>
<ellipse fill="none" stroke="black" cx="167.995" cy="-90" rx="27" ry="18"/>
<text text-anchor="middle" x="167.995" y="-86.3" font-family="Times,serif" font-size="14.00">Pow</text>
</g>
<!-- Add(Pow(Symbol(&#39;x&#39;), Integer(2)), Mul(Symbol(&#39;x&#39;), Symbol(&#39;y&#39;)))_()&#45;&gt;Pow(Symbol(&#39;x&#39;), Integer(2))_(0,) -->
<g id="edge1" class="edge"><title>Add(Pow(Symbol(&#39;x&#39;), Integer(2)), Mul(Symbol(&#39;x&#39;), Symbol(&#39;y&#39;)))_()&#45;&gt;Pow(Symbol(&#39;x&#39;), Integer(2))_(0,)</title>
<path fill="none" stroke="black" d="M213.41,-145.811C205.734,-136.546 195.769,-124.52 187.131,-114.094"/>
<polygon fill="black" stroke="black" points="189.631,-111.626 180.556,-106.159 184.241,-116.093 189.631,-111.626"/>
</g>
<!-- Mul(Symbol(&#39;x&#39;), Symbol(&#39;y&#39;))_(1,) -->
<g id="node5" class="node"><title>Mul(Symbol(&#39;x&#39;), Symbol(&#39;y&#39;))_(1,)</title>
<ellipse fill="none" stroke="black" cx="283.995" cy="-90" rx="27" ry="18"/>
<text text-anchor="middle" x="283.995" y="-86.3" font-family="Times,serif" font-size="14.00">Mul</text>
</g>
<!-- Add(Pow(Symbol(&#39;x&#39;), Integer(2)), Mul(Symbol(&#39;x&#39;), Symbol(&#39;y&#39;)))_()&#45;&gt;Mul(Symbol(&#39;x&#39;), Symbol(&#39;y&#39;))_(1,) -->
<g id="edge2" class="edge"><title>Add(Pow(Symbol(&#39;x&#39;), Integer(2)), Mul(Symbol(&#39;x&#39;), Symbol(&#39;y&#39;)))_()&#45;&gt;Mul(Symbol(&#39;x&#39;), Symbol(&#39;y&#39;))_(1,)</title>
<path fill="none" stroke="black" d="M238.581,-145.811C246.257,-136.546 256.221,-124.52 264.86,-114.094"/>
<polygon fill="black" stroke="black" points="267.75,-116.093 271.435,-106.159 262.36,-111.626 267.75,-116.093"/>
</g>
<!-- Symbol(&#39;x&#39;)_(0, 0) -->
<g id="node3" class="node"><title>Symbol(&#39;x&#39;)_(0, 0)</title>
<ellipse fill="none" stroke="black" cx="51.9954" cy="-18" rx="51.9908" ry="18"/>
<text text-anchor="middle" x="51.9954" y="-14.3" font-family="Times,serif" font-size="14.00">Symbol(&#39;x&#39;)</text>
</g>
<!-- Pow(Symbol(&#39;x&#39;), Integer(2))_(0,)&#45;&gt;Symbol(&#39;x&#39;)_(0, 0) -->
<g id="edge3" class="edge"><title>Pow(Symbol(&#39;x&#39;), Integer(2))_(0,)&#45;&gt;Symbol(&#39;x&#39;)_(0, 0)</title>
<path fill="none" stroke="black" d="M148.58,-77.2836C131.388,-66.9091 105.918,-51.5397 85.45,-39.1881"/>
<polygon fill="black" stroke="black" points="87.1049,-36.0989 76.7347,-33.9289 83.4882,-42.0922 87.1049,-36.0989"/>
</g>
<!-- Integer(2)_(0, 1) -->
<g id="node4" class="node"><title>Integer(2)_(0, 1)</title>
<ellipse fill="none" stroke="black" cx="167.995" cy="-18" rx="46.2923" ry="18"/>
<text text-anchor="middle" x="167.995" y="-14.3" font-family="Times,serif" font-size="14.00">Integer(2)</text>
</g>
<!-- Pow(Symbol(&#39;x&#39;), Integer(2))_(0,)&#45;&gt;Integer(2)_(0, 1) -->
<g id="edge4" class="edge"><title>Pow(Symbol(&#39;x&#39;), Integer(2))_(0,)&#45;&gt;Integer(2)_(0, 1)</title>
<path fill="none" stroke="black" d="M167.995,-71.6966C167.995,-63.9827 167.995,-54.7125 167.995,-46.1124"/>
<polygon fill="black" stroke="black" points="171.495,-46.1043 167.995,-36.1043 164.495,-46.1044 171.495,-46.1043"/>
</g>
<!-- Symbol(&#39;x&#39;)_(1, 0) -->
<g id="node6" class="node"><title>Symbol(&#39;x&#39;)_(1, 0)</title>
<ellipse fill="none" stroke="black" cx="283.995" cy="-18" rx="51.9908" ry="18"/>
<text text-anchor="middle" x="283.995" y="-14.3" font-family="Times,serif" font-size="14.00">Symbol(&#39;x&#39;)</text>
</g>
<!-- Mul(Symbol(&#39;x&#39;), Symbol(&#39;y&#39;))_(1,)&#45;&gt;Symbol(&#39;x&#39;)_(1, 0) -->
<g id="edge5" class="edge"><title>Mul(Symbol(&#39;x&#39;), Symbol(&#39;y&#39;))_(1,)&#45;&gt;Symbol(&#39;x&#39;)_(1, 0)</title>
<path fill="none" stroke="black" d="M283.995,-71.6966C283.995,-63.9827 283.995,-54.7125 283.995,-46.1124"/>
<polygon fill="black" stroke="black" points="287.495,-46.1043 283.995,-36.1043 280.495,-46.1044 287.495,-46.1043"/>
</g>
<!-- Symbol(&#39;y&#39;)_(1, 1) -->
<g id="node7" class="node"><title>Symbol(&#39;y&#39;)_(1, 1)</title>
<ellipse fill="none" stroke="black" cx="405.995" cy="-18" rx="51.9908" ry="18"/>
<text text-anchor="middle" x="405.995" y="-14.3" font-family="Times,serif" font-size="14.00">Symbol(&#39;y&#39;)</text>
</g>
<!-- Mul(Symbol(&#39;x&#39;), Symbol(&#39;y&#39;))_(1,)&#45;&gt;Symbol(&#39;y&#39;)_(1, 1) -->
<g id="edge6" class="edge"><title>Mul(Symbol(&#39;x&#39;), Symbol(&#39;y&#39;))_(1,)&#45;&gt;Symbol(&#39;y&#39;)_(1, 1)</title>
<path fill="none" stroke="black" d="M303.868,-77.5975C322.146,-67.1102 349.645,-51.3321 371.505,-38.7895"/>
<polygon fill="black" stroke="black" points="373.249,-41.8243 380.181,-33.8118 369.765,-35.7527 373.249,-41.8243"/>
</g>
</g>
</svg>
