<?xml version="1.0" encoding="UTF-8" standalone="no"?>
<!DOCTYPE svg PUBLIC "-//W3C//DTD SVG 1.1//EN"
 "http://www.w3.org/Graphics/SVG/1.1/DTD/svg11.dtd">
<!-- Generated by graphviz version 2.38.0 (20140413.2041)
 -->
<!-- Title: %3 Pages: 1 -->
<svg width="466pt" height="188pt"
 viewBox="0.00 0.00 465.99 188.00" xmlns="http://www.w3.org/2000/svg" xmlns:xlink="http://www.w3.org/1999/xlink">
<g id="graph0" class="graph" transform="scale(1 1) rotate(0) translate(4 184)">
<title>%3</title>
<polygon fill="white" stroke="none" points="-4,4 -4,-184 461.991,-184 461.991,4 -4,4"/>
<!-- Symbol(x)_(0, 0) -->
<g id="node1" class="node"><title>Symbol(x)_(0, 0)</title>
<ellipse fill="none" stroke="black" cx="51.9954" cy="-18" rx="51.9908" ry="18"/>
<text text-anchor="middle" x="51.9954" y="-14.3" font-family="Times,serif" font-size="14.00">Symbol(&#39;x&#39;)</text>
</g>
<!-- Integer(2)_(1, 1) -->
<g id="node2" class="node"><title>Integer(2)_(1, 1)</title>
<ellipse fill="none" stroke="black" cx="289.995" cy="-18" rx="46.2923" ry="18"/>
<text text-anchor="middle" x="289.995" y="-14.3" font-family="Times,serif" font-size="14.00">Integer(2)</text>
</g>
<!-- Symbol(y)_(0, 1) -->
<g id="node3" class="node"><title>Symbol(y)_(0, 1)</title>
<ellipse fill="none" stroke="black" cx="173.995" cy="-18" rx="51.9908" ry="18"/>
<text text-anchor="middle" x="173.995" y="-14.3" font-family="Times,serif" font-size="14.00">Symbol(&#39;y&#39;)</text>
</g>
<!-- Symbol(x)_(1, 0) -->
<g id="node4" class="node"><title>Symbol(x)_(1, 0)</title>
<ellipse fill="none" stroke="black" cx="405.995" cy="-18" rx="51.9908" ry="18"/>
<text text-anchor="middle" x="405.995" y="-14.3" font-family="Times,serif" font-size="14.00">Symbol(&#39;x&#39;)</text>
</g>
<!-- Mul(Symbol(x), Symbol(y))_(0,) -->
<g id="node5" class="node"><title>Mul(Symbol(x), Symbol(y))_(0,)</title>
<ellipse fill="none" stroke="black" cx="173.995" cy="-90" rx="27" ry="18"/>
<text text-anchor="middle" x="173.995" y="-86.3" font-family="Times,serif" font-size="14.00">Mul</text>
</g>
<!-- Mul(Symbol(x), Symbol(y))_(0,)&#45;&gt;Symbol(x)_(0, 0) -->
<g id="edge1" class="edge"><title>Mul(Symbol(x), Symbol(y))_(0,)&#45;&gt;Symbol(x)_(0, 0)</title>
<path fill="none" stroke="black" d="M154.122,-77.5975C135.845,-67.1102 108.346,-51.3321 86.4856,-38.7895"/>
<polygon fill="black" stroke="black" points="88.2257,-35.7527 77.8102,-33.8118 84.742,-41.8243 88.2257,-35.7527"/>
</g>
<!-- Mul(Symbol(x), Symbol(y))_(0,)&#45;&gt;Symbol(y)_(0, 1) -->
<g id="edge2" class="edge"><title>Mul(Symbol(x), Symbol(y))_(0,)&#45;&gt;Symbol(y)_(0, 1)</title>
<path fill="none" stroke="black" d="M173.995,-71.6966C173.995,-63.9827 173.995,-54.7125 173.995,-46.1124"/>
<polygon fill="black" stroke="black" points="177.495,-46.1043 173.995,-36.1043 170.495,-46.1044 177.495,-46.1043"/>
</g>
<!-- Pow(Symbol(x), Integer(2))_(1,) -->
<g id="node6" class="node"><title>Pow(Symbol(x), Integer(2))_(1,)</title>
<ellipse fill="none" stroke="black" cx="289.995" cy="-90" rx="27" ry="18"/>
<text text-anchor="middle" x="289.995" y="-86.3" font-family="Times,serif" font-size="14.00">Pow</text>
</g>
<!-- Pow(Symbol(x), Integer(2))_(1,)&#45;&gt;Integer(2)_(1, 1) -->
<g id="edge4" class="edge"><title>Pow(Symbol(x), Integer(2))_(1,)&#45;&gt;Integer(2)_(1, 1)</title>
<path fill="none" stroke="black" d="M289.995,-71.6966C289.995,-63.9827 289.995,-54.7125 289.995,-46.1124"/>
<polygon fill="black" stroke="black" points="293.495,-46.1043 289.995,-36.1043 286.495,-46.1044 293.495,-46.1043"/>
</g>
<!-- Pow(Symbol(x), Integer(2))_(1,)&#45;&gt;Symbol(x)_(1, 0) -->
<g id="edge3" class="edge"><title>Pow(Symbol(x), Integer(2))_(1,)&#45;&gt;Symbol(x)_(1, 0)</title>
<path fill="none" stroke="black" d="M309.411,-77.2836C326.603,-66.9091 352.072,-51.5397 372.541,-39.1881"/>
<polygon fill="black" stroke="black" points="374.503,-42.0922 381.256,-33.9289 370.886,-36.0989 374.503,-42.0922"/>
</g>
<!-- Add(Mul(Symbol(x), Symbol(y)), Pow(Symbol(x), Integer(2)))_() -->
<g id="node7" class="node"><title>Add(Mul(Symbol(x), Symbol(y)), Pow(Symbol(x), Integer(2)))_()</title>
<ellipse fill="none" stroke="black" cx="231.995" cy="-162" rx="27" ry="18"/>
<text text-anchor="middle" x="231.995" y="-158.3" font-family="Times,serif" font-size="14.00">Add</text>
</g>
<!-- Add(Mul(Symbol(x), Symbol(y)), Pow(Symbol(x), Integer(2)))_()&#45;&gt;Mul(Symbol(x), Symbol(y))_(0,) -->
<g id="edge5" class="edge"><title>Add(Mul(Symbol(x), Symbol(y)), Pow(Symbol(x), Integer(2)))_()&#45;&gt;Mul(Symbol(x), Symbol(y))_(0,)</title>
<path fill="none" stroke="black" d="M219.41,-145.811C211.734,-136.546 201.769,-124.52 193.131,-114.094"/>
<polygon fill="black" stroke="black" points="195.631,-111.626 186.556,-106.159 190.241,-116.093 195.631,-111.626"/>
</g>
<!-- Add(Mul(Symbol(x), Symbol(y)), Pow(Symbol(x), Integer(2)))_()&#45;&gt;Pow(Symbol(x), Integer(2))_(1,) -->
<g id="edge6" class="edge"><title>Add(Mul(Symbol(x), Symbol(y)), Pow(Symbol(x), Integer(2)))_()&#45;&gt;Pow(Symbol(x), Integer(2))_(1,)</title>
<path fill="none" stroke="black" d="M244.581,-145.811C252.257,-136.546 262.221,-124.52 270.86,-114.094"/>
<polygon fill="black" stroke="black" points="273.75,-116.093 277.435,-106.159 268.36,-111.626 273.75,-116.093"/>
</g>
</g>
</svg>
