<?xml version="1.0" encoding="UTF-8" standalone="no"?>
<!DOCTYPE svg PUBLIC "-//W3C//DTD SVG 1.1//EN"
 "http://www.w3.org/Graphics/SVG/1.1/DTD/svg11.dtd">
<!-- Generated by graphviz version 2.26.3 (20100126.1600)
 -->
<!-- Title: _anonymous_0 Pages: 1 -->
<svg width="327pt" height="194pt"
 viewBox="0.00 0.00 327.00 194.00" xmlns="http://www.w3.org/2000/svg" xmlns:xlink="http://www.w3.org/1999/xlink">
<g id="graph1" class="graph" transform="scale(1 1) rotate(0) translate(4 190)">
<title>_anonymous_0</title>
<polygon fill="white" stroke="white" points="-4,5 -4,-190 324,-190 324,5 -4,5"/>
<!-- Symbol(x)_(0,) -->
<g id="node1" class="node"><title>Symbol(x)_(0,)</title>
<ellipse fill="none" stroke="black" cx="65" cy="-93" rx="65.0538" ry="18.3848"/>
<text text-anchor="middle" x="65" y="-89.4" font-family="Times Roman,serif" font-size="14.00">Symbol(&#39;x&#39;)</text>
</g>
<!-- Symbol(y)_(1, 0) -->
<g id="node2" class="node"><title>Symbol(y)_(1, 0)</title>
<ellipse fill="none" stroke="black" cx="106" cy="-19" rx="65.0538" ry="18.3848"/>
<text text-anchor="middle" x="106" y="-15.4" font-family="Times Roman,serif" font-size="14.00">Symbol(&#39;y&#39;)</text>
</g>
<!-- NegativeOne()_(1, 1) -->
<g id="node3" class="node"><title>NegativeOne()_(1, 1)</title>
<ellipse fill="none" stroke="black" cx="254" cy="-19" rx="65.0538" ry="18.3848"/>
<text text-anchor="middle" x="254" y="-15.4" font-family="Times Roman,serif" font-size="14.00">Integer(&#45;1)</text>
</g>
<!-- Pow(Symbol(y), NegativeOne())_(1,) -->
<g id="node4" class="node"><title>Pow(Symbol(y), NegativeOne())_(1,)</title>
<ellipse fill="none" stroke="black" cx="180" cy="-93" rx="32.0265" ry="18.3848"/>
<text text-anchor="middle" x="180" y="-89.4" font-family="Times Roman,serif" font-size="14.00">Pow</text>
</g>
<!-- Pow(Symbol(y), NegativeOne())_(1,)&#45;&gt;Symbol(y)_(1, 0) -->
<g id="edge2" class="edge"><title>Pow(Symbol(y), NegativeOne())_(1,)&#45;&gt;Symbol(y)_(1, 0)</title>
<path fill="none" stroke="black" d="M163.943,-76.9431C154.342,-67.3417 141.935,-54.9347 131.066,-44.0662"/>
<polygon fill="black" stroke="black" points="133.387,-41.4373 123.841,-36.8411 128.437,-46.3871 133.387,-41.4373"/>
</g>
<!-- Pow(Symbol(y), NegativeOne())_(1,)&#45;&gt;NegativeOne()_(1, 1) -->
<g id="edge4" class="edge"><title>Pow(Symbol(y), NegativeOne())_(1,)&#45;&gt;NegativeOne()_(1, 1)</title>
<path fill="none" stroke="black" d="M196.057,-76.9431C205.658,-67.3417 218.065,-54.9347 228.934,-44.0662"/>
<polygon fill="black" stroke="black" points="231.563,-46.3871 236.159,-36.8411 226.613,-41.4373 231.563,-46.3871"/>
</g>
<!-- Mul(Symbol(x), Pow(Symbol(y), NegativeOne()))_() -->
<g id="node5" class="node"><title>Mul(Symbol(x), Pow(Symbol(y), NegativeOne()))_()</title>
<ellipse fill="none" stroke="black" cx="122" cy="-167" rx="28.9914" ry="18.3848"/>
<text text-anchor="middle" x="122" y="-163.4" font-family="Times Roman,serif" font-size="14.00">Mul</text>
</g>
<!-- Mul(Symbol(x), Pow(Symbol(y), NegativeOne()))_()&#45;&gt;Symbol(x)_(0,) -->
<g id="edge6" class="edge"><title>Mul(Symbol(x), Pow(Symbol(y), NegativeOne()))_()&#45;&gt;Symbol(x)_(0,)</title>
<path fill="none" stroke="black" d="M109.066,-150.208C102.016,-141.056 93.1335,-129.524 85.1934,-119.216"/>
<polygon fill="black" stroke="black" points="87.9559,-117.067 79.0807,-111.28 82.4103,-121.338 87.9559,-117.067"/>
</g>
<!-- Mul(Symbol(x), Pow(Symbol(y), NegativeOne()))_()&#45;&gt;Pow(Symbol(y), NegativeOne())_(1,) -->
<g id="edge8" class="edge"><title>Mul(Symbol(x), Pow(Symbol(y), NegativeOne()))_()&#45;&gt;Pow(Symbol(y), NegativeOne())_(1,)</title>
<path fill="none" stroke="black" d="M135.161,-150.208C142.598,-140.72 152.04,-128.673 160.339,-118.084"/>
<polygon fill="black" stroke="black" points="163.276,-120.011 166.69,-109.981 157.767,-115.693 163.276,-120.011"/>
</g>
</g>
</svg>
