<?xml version="1.0" encoding="UTF-8" standalone="no"?>
<!DOCTYPE svg PUBLIC "-//W3C//DTD SVG 1.1//EN"
 "http://www.w3.org/Graphics/SVG/1.1/DTD/svg11.dtd">
<!-- Generated by graphviz version 2.26.3 (20100126.1600)
 -->
<!-- Title: _anonymous_0 Pages: 1 -->
<svg width="574pt" height="194pt"
 viewBox="0.00 0.00 574.00 194.00" xmlns="http://www.w3.org/2000/svg" xmlns:xlink="http://www.w3.org/1999/xlink">
<g id="graph1" class="graph" transform="scale(1 1) rotate(0) translate(4 190)">
<title>_anonymous_0</title>
<polygon fill="white" stroke="white" points="-4,5 -4,-190 571,-190 571,5 -4,5"/>
<!-- Symbol(x)_(0, 0) -->
<g id="node1" class="node"><title>Symbol(x)_(0, 0)</title>
<ellipse fill="none" stroke="black" cx="65" cy="-19" rx="65.0538" ry="18.3848"/>
<text text-anchor="middle" x="65" y="-15.4" font-family="Times Roman,serif" font-size="14.00">Symbol(&#39;x&#39;)</text>
</g>
<!-- Integer(2)_(1, 1) -->
<g id="node2" class="node"><title>Integer(2)_(1, 1)</title>
<ellipse fill="none" stroke="black" cx="357" cy="-19" rx="60.8112" ry="18.3848"/>
<text text-anchor="middle" x="357" y="-15.4" font-family="Times Roman,serif" font-size="14.00">Integer(2)</text>
</g>
<!-- Symbol(y)_(0, 1) -->
<g id="node3" class="node"><title>Symbol(y)_(0, 1)</title>
<ellipse fill="none" stroke="black" cx="213" cy="-19" rx="65.0538" ry="18.3848"/>
<text text-anchor="middle" x="213" y="-15.4" font-family="Times Roman,serif" font-size="14.00">Symbol(&#39;y&#39;)</text>
</g>
<!-- Symbol(x)_(1, 0) -->
<g id="node4" class="node"><title>Symbol(x)_(1, 0)</title>
<ellipse fill="none" stroke="black" cx="501" cy="-19" rx="65.0538" ry="18.3848"/>
<text text-anchor="middle" x="501" y="-15.4" font-family="Times Roman,serif" font-size="14.00">Symbol(&#39;x&#39;)</text>
</g>
<!-- Mul(Symbol(x), Symbol(y))_(0,) -->
<g id="node5" class="node"><title>Mul(Symbol(x), Symbol(y))_(0,)</title>
<ellipse fill="none" stroke="black" cx="213" cy="-93" rx="28.9914" ry="18.3848"/>
<text text-anchor="middle" x="213" y="-89.4" font-family="Times Roman,serif" font-size="14.00">Mul</text>
</g>
<!-- Mul(Symbol(x), Symbol(y))_(0,)&#45;&gt;Symbol(x)_(0, 0) -->
<g id="edge2" class="edge"><title>Mul(Symbol(x), Symbol(y))_(0,)&#45;&gt;Symbol(x)_(0, 0)</title>
<path fill="none" stroke="black" d="M189.875,-81.4375C167.621,-70.3107 133.47,-53.2352 106.504,-39.7519"/>
<polygon fill="black" stroke="black" points="107.806,-36.4899 97.2963,-35.1482 104.675,-42.7509 107.806,-36.4899"/>
</g>
<!-- Mul(Symbol(x), Symbol(y))_(0,)&#45;&gt;Symbol(y)_(0, 1) -->
<g id="edge4" class="edge"><title>Mul(Symbol(x), Symbol(y))_(0,)&#45;&gt;Symbol(y)_(0, 1)</title>
<path fill="none" stroke="black" d="M213,-74.3267C213,-66.2639 213,-56.6477 213,-47.7115"/>
<polygon fill="black" stroke="black" points="216.5,-47.6673 213,-37.6674 209.5,-47.6674 216.5,-47.6673"/>
</g>
<!-- Pow(Symbol(x), Integer(2))_(1,) -->
<g id="node6" class="node"><title>Pow(Symbol(x), Integer(2))_(1,)</title>
<ellipse fill="none" stroke="black" cx="357" cy="-93" rx="32.0265" ry="18.3848"/>
<text text-anchor="middle" x="357" y="-89.4" font-family="Times Roman,serif" font-size="14.00">Pow</text>
</g>
<!-- Pow(Symbol(x), Integer(2))_(1,)&#45;&gt;Integer(2)_(1, 1) -->
<g id="edge8" class="edge"><title>Pow(Symbol(x), Integer(2))_(1,)&#45;&gt;Integer(2)_(1, 1)</title>
<path fill="none" stroke="black" d="M357,-74.3267C357,-66.2639 357,-56.6477 357,-47.7115"/>
<polygon fill="black" stroke="black" points="360.5,-47.6673 357,-37.6674 353.5,-47.6674 360.5,-47.6673"/>
</g>
<!-- Pow(Symbol(x), Integer(2))_(1,)&#45;&gt;Symbol(x)_(1, 0) -->
<g id="edge6" class="edge"><title>Pow(Symbol(x), Integer(2))_(1,)&#45;&gt;Symbol(x)_(1, 0)</title>
<path fill="none" stroke="black" d="M381.102,-80.6141C402.709,-69.5108 434.847,-52.9954 460.412,-39.8576"/>
<polygon fill="black" stroke="black" points="462.208,-42.8701 469.502,-35.1864 459.008,-36.6441 462.208,-42.8701"/>
</g>
<!-- Add(Mul(Symbol(x), Symbol(y)), Pow(Symbol(x), Integer(2)))_() -->
<g id="node7" class="node"><title>Add(Mul(Symbol(x), Symbol(y)), Pow(Symbol(x), Integer(2)))_()</title>
<ellipse fill="none" stroke="black" cx="285" cy="-167" rx="29.9071" ry="18.3848"/>
<text text-anchor="middle" x="285" y="-163.4" font-family="Times Roman,serif" font-size="14.00">Add</text>
</g>
<!-- Add(Mul(Symbol(x), Symbol(y)), Pow(Symbol(x), Integer(2)))_()&#45;&gt;Mul(Symbol(x), Symbol(y))_(0,) -->
<g id="edge10" class="edge"><title>Add(Mul(Symbol(x), Symbol(y)), Pow(Symbol(x), Integer(2)))_()&#45;&gt;Mul(Symbol(x), Symbol(y))_(0,)</title>
<path fill="none" stroke="black" d="M269.377,-150.943C259.497,-140.789 246.565,-127.497 235.579,-116.206"/>
<polygon fill="black" stroke="black" points="237.827,-113.498 228.345,-108.771 232.81,-118.379 237.827,-113.498"/>
</g>
<!-- Add(Mul(Symbol(x), Symbol(y)), Pow(Symbol(x), Integer(2)))_()&#45;&gt;Pow(Symbol(x), Integer(2))_(1,) -->
<g id="edge12" class="edge"><title>Add(Mul(Symbol(x), Symbol(y)), Pow(Symbol(x), Integer(2)))_()&#45;&gt;Pow(Symbol(x), Integer(2))_(1,)</title>
<path fill="none" stroke="black" d="M300.623,-150.943C310.368,-140.927 323.084,-127.858 333.972,-116.668"/>
<polygon fill="black" stroke="black" points="336.694,-118.889 341.159,-109.281 331.677,-114.008 336.694,-118.889"/>
</g>
</g>
</svg>
