<?xml version="1.0" encoding="UTF-8" standalone="no"?>
<!DOCTYPE svg PUBLIC "-//W3C//DTD SVG 1.1//EN"
 "http://www.w3.org/Graphics/SVG/1.1/DTD/svg11.dtd">
<!-- Generated by graphviz version 2.26.3 (20100126.1600)
 -->
<!-- Title: _anonymous_0 Pages: 1 -->
<svg width="737pt" height="332pt"
 viewBox="0.00 0.00 737.00 332.00" xmlns="http://www.w3.org/2000/svg" xmlns:xlink="http://www.w3.org/1999/xlink">
<g id="graph1" class="graph" transform="scale(1 1) rotate(0) translate(4 328)">
<title>_anonymous_0</title>
<polygon fill="white" stroke="white" points="-4,5 -4,-328 734,-328 734,5 -4,5"/>
<!-- Half() -->
<g id="node1" class="node"><title>Half()</title>
<ellipse fill="none" stroke="black" cx="308" cy="-162" rx="61.8953" ry="18"/>
<text text-anchor="middle" x="308" y="-156.9" font-family="Times,serif" font-size="14.00">Rational(1, 2)</text>
</g>
<!-- Symbol(y) -->
<g id="node2" class="node"><title>Symbol(y)</title>
<ellipse fill="none" stroke="black" cx="54" cy="-162" rx="53.9452" ry="18"/>
<text text-anchor="middle" x="54" y="-156.9" font-family="Times,serif" font-size="14.00">Symbol(&#39;y&#39;)</text>
</g>
<!-- Symbol(x) -->
<g id="node3" class="node"><title>Symbol(x)</title>
<ellipse fill="none" stroke="black" cx="561" cy="-90" rx="53.9452" ry="18"/>
<text text-anchor="middle" x="561" y="-84.9" font-family="Times,serif" font-size="14.00">Symbol(&#39;x&#39;)</text>
</g>
<!-- Integer(2) -->
<g id="node4" class="node"><title>Integer(2)</title>
<ellipse fill="none" stroke="black" cx="681" cy="-90" rx="48.0957" ry="18"/>
<text text-anchor="middle" x="681" y="-84.9" font-family="Times,serif" font-size="14.00">Integer(2)</text>
</g>
<!-- Symbol(x1) -->
<g id="node5" class="node"><title>Symbol(x1)</title>
<ellipse fill="none" stroke="black" cx="352" cy="-18" rx="53.9452" ry="18"/>
<text text-anchor="middle" x="352" y="-12.9" font-family="Times,serif" font-size="14.00">Symbol(&#39;x&#39;)</text>
</g>
<!-- Symbol(y1) -->
<g id="node6" class="node"><title>Symbol(y1)</title>
<ellipse fill="none" stroke="black" cx="478" cy="-18" rx="53.9452" ry="18"/>
<text text-anchor="middle" x="478" y="-12.9" font-family="Times,serif" font-size="14.00">Symbol(&#39;y&#39;)</text>
</g>
<!-- NegativeOne()p -->
<g id="node7" class="node"><title>NegativeOne()p</title>
<ellipse fill="none" stroke="black" cx="177" cy="-162" rx="50.8469" ry="18"/>
<text text-anchor="middle" x="177" y="-156.9" font-family="Times,serif" font-size="14.00">Integer(&#45;1)</text>
</g>
<!-- NegativeOne()c -->
<g id="node8" class="node"><title>NegativeOne()c</title>
<ellipse fill="none" stroke="black" cx="511" cy="-162" rx="50.8469" ry="18"/>
<text text-anchor="middle" x="511" y="-156.9" font-family="Times,serif" font-size="14.00">Integer(&#45;1)</text>
</g>
<!-- Pow(Symbol(x), Integer(2)) -->
<g id="node9" class="node"><title>Pow(Symbol(x), Integer(2))</title>
<ellipse fill="none" stroke="black" cx="608" cy="-162" rx="27.9475" ry="18"/>
<text text-anchor="middle" x="608" y="-156.9" font-family="Times,serif" font-size="14.00">Pow</text>
</g>
<!-- Pow(Symbol(x), Integer(2))&#45;&gt;Symbol(x) -->
<g id="edge2" class="edge"><title>Pow(Symbol(x), Integer(2))&#45;&gt;Symbol(x)</title>
<path fill="none" stroke="black" d="M597.099,-145.301C591.452,-136.65 584.426,-125.887 578.078,-116.162"/>
<polygon fill="black" stroke="black" points="580.895,-114.074 572.497,-107.613 575.033,-117.9 580.895,-114.074"/>
</g>
<!-- Pow(Symbol(x), Integer(2))&#45;&gt;Integer(2) -->
<g id="edge4" class="edge"><title>Pow(Symbol(x), Integer(2))&#45;&gt;Integer(2)</title>
<path fill="none" stroke="black" d="M623.481,-146.731C633.071,-137.273 645.597,-124.918 656.51,-114.155"/>
<polygon fill="black" stroke="black" points="659.09,-116.526 663.752,-107.012 654.175,-111.542 659.09,-116.526"/>
</g>
<!-- Mul(Symbol(x1), Symbol(y1)) -->
<g id="node10" class="node"><title>Mul(Symbol(x1), Symbol(y1))</title>
<ellipse fill="none" stroke="black" cx="415" cy="-90" rx="27" ry="18"/>
<text text-anchor="middle" x="415" y="-84.9" font-family="Times,serif" font-size="14.00">Mul</text>
</g>
<!-- Mul(Symbol(x1), Symbol(y1))&#45;&gt;Symbol(x1) -->
<g id="edge6" class="edge"><title>Mul(Symbol(x1), Symbol(y1))&#45;&gt;Symbol(x1)</title>
<path fill="none" stroke="black" d="M401.33,-74.3771C393.313,-65.2148 382.998,-53.4268 373.875,-43.0005"/>
<polygon fill="black" stroke="black" points="376.408,-40.5799 367.189,-35.3589 371.14,-45.1895 376.408,-40.5799"/>
</g>
<!-- Mul(Symbol(x1), Symbol(y1))&#45;&gt;Symbol(y1) -->
<g id="edge8" class="edge"><title>Mul(Symbol(x1), Symbol(y1))&#45;&gt;Symbol(y1)</title>
<path fill="none" stroke="black" d="M428.67,-74.3771C436.687,-65.2148 447.002,-53.4268 456.125,-43.0005"/>
<polygon fill="black" stroke="black" points="458.86,-45.1895 462.811,-35.3589 453.592,-40.5799 458.86,-45.1895"/>
</g>
<!-- Pow(Symbol(y), NegativeOne()p) -->
<g id="node11" class="node"><title>Pow(Symbol(y), NegativeOne()p)</title>
<ellipse fill="none" stroke="black" cx="177" cy="-234" rx="27.9475" ry="18"/>
<text text-anchor="middle" x="177" y="-228.9" font-family="Times,serif" font-size="14.00">Pow</text>
</g>
<!-- Pow(Symbol(y), NegativeOne()p)&#45;&gt;Symbol(y) -->
<g id="edge10" class="edge"><title>Pow(Symbol(y), NegativeOne()p)&#45;&gt;Symbol(y)</title>
<path fill="none" stroke="black" d="M156.135,-221.786C138.023,-211.184 111.401,-195.6 89.8773,-183.001"/>
<polygon fill="black" stroke="black" points="91.4031,-179.839 81.0048,-177.808 87.8668,-185.88 91.4031,-179.839"/>
</g>
<!-- Pow(Symbol(y), NegativeOne()p)&#45;&gt;NegativeOne()p -->
<g id="edge12" class="edge"><title>Pow(Symbol(y), NegativeOne()p)&#45;&gt;NegativeOne()p</title>
<path fill="none" stroke="black" d="M177,-215.831C177,-208.131 177,-198.974 177,-190.417"/>
<polygon fill="black" stroke="black" points="180.5,-190.413 177,-180.413 173.5,-190.413 180.5,-190.413"/>
</g>
<!-- sin(Mul(Symbol(x1), Symbol(y1))) -->
<g id="node12" class="node"><title>sin(Mul(Symbol(x1), Symbol(y1)))</title>
<ellipse fill="none" stroke="black" cx="415" cy="-162" rx="27" ry="18"/>
<text text-anchor="middle" x="415" y="-156.9" font-family="Times,serif" font-size="14.00">sin</text>
</g>
<!-- sin(Mul(Symbol(x1), Symbol(y1)))&#45;&gt;Mul(Symbol(x1), Symbol(y1)) -->
<g id="edge18" class="edge"><title>sin(Mul(Symbol(x1), Symbol(y1)))&#45;&gt;Mul(Symbol(x1), Symbol(y1))</title>
<path fill="none" stroke="black" d="M415,-143.831C415,-136.131 415,-126.974 415,-118.417"/>
<polygon fill="black" stroke="black" points="418.5,-118.413 415,-108.413 411.5,-118.413 418.5,-118.413"/>
</g>
<!-- Mul(Half(), sin(Mul(Symbol(x1), Symbol(y1)))) -->
<g id="node13" class="node"><title>Mul(Half(), sin(Mul(Symbol(x1), Symbol(y1))))</title>
<ellipse fill="none" stroke="black" cx="361" cy="-234" rx="27" ry="18"/>
<text text-anchor="middle" x="361" y="-228.9" font-family="Times,serif" font-size="14.00">Mul</text>
</g>
<!-- Mul(Half(), sin(Mul(Symbol(x1), Symbol(y1))))&#45;&gt;Half() -->
<g id="edge14" class="edge"><title>Mul(Half(), sin(Mul(Symbol(x1), Symbol(y1))))&#45;&gt;Half()</title>
<path fill="none" stroke="black" d="M348.973,-217.662C342.548,-208.934 334.486,-197.981 327.216,-188.105"/>
<polygon fill="black" stroke="black" points="329.84,-185.765 321.093,-179.786 324.202,-189.914 329.84,-185.765"/>
</g>
<!-- Mul(Half(), sin(Mul(Symbol(x1), Symbol(y1))))&#45;&gt;sin(Mul(Symbol(x1), Symbol(y1))) -->
<g id="edge22" class="edge"><title>Mul(Half(), sin(Mul(Symbol(x1), Symbol(y1))))&#45;&gt;sin(Mul(Symbol(x1), Symbol(y1)))</title>
<path fill="none" stroke="black" d="M373.253,-217.662C380.158,-208.456 388.918,-196.776 396.629,-186.495"/>
<polygon fill="black" stroke="black" points="399.595,-188.373 402.795,-178.273 393.995,-184.173 399.595,-188.373"/>
</g>
<!-- Mul(NegativeOne()c, Pow(Symbol(x), Integer(2))) -->
<g id="node14" class="node"><title>Mul(NegativeOne()c, Pow(Symbol(x), Integer(2)))</title>
<ellipse fill="none" stroke="black" cx="511" cy="-234" rx="27" ry="18"/>
<text text-anchor="middle" x="511" y="-228.9" font-family="Times,serif" font-size="14.00">Mul</text>
</g>
<!-- Mul(NegativeOne()c, Pow(Symbol(x), Integer(2)))&#45;&gt;NegativeOne()c -->
<g id="edge16" class="edge"><title>Mul(NegativeOne()c, Pow(Symbol(x), Integer(2)))&#45;&gt;NegativeOne()c</title>
<path fill="none" stroke="black" d="M511,-215.831C511,-208.131 511,-198.974 511,-190.417"/>
<polygon fill="black" stroke="black" points="514.5,-190.413 511,-180.413 507.5,-190.413 514.5,-190.413"/>
</g>
<!-- Mul(NegativeOne()c, Pow(Symbol(x), Integer(2)))&#45;&gt;Pow(Symbol(x), Integer(2)) -->
<g id="edge20" class="edge"><title>Mul(NegativeOne()c, Pow(Symbol(x), Integer(2)))&#45;&gt;Pow(Symbol(x), Integer(2))</title>
<path fill="none" stroke="black" d="M529.245,-220.457C543.919,-209.565 564.746,-194.106 581.297,-181.821"/>
<polygon fill="black" stroke="black" points="583.563,-184.497 589.507,-175.727 579.391,-178.877 583.563,-184.497"/>
</g>
<!-- Add(Mul(Half(), sin(Mul(Symbol(x1), Symbol(y1)))), Mul(NegativeOne()c, Pow(Symbol(x), Integer(2))), Pow(Symbol(y), NegativeOne()p)) -->
<g id="node15" class="node"><title>Add(Mul(Half(), sin(Mul(Symbol(x1), Symbol(y1)))), Mul(NegativeOne()c, Pow(Symbol(x), Integer(2))), Pow(Symbol(y), NegativeOne()p))</title>
<ellipse fill="none" stroke="black" cx="361" cy="-306" rx="26.8013" ry="18"/>
<text text-anchor="middle" x="361" y="-300.9" font-family="Times,serif" font-size="14.00">Add</text>
</g>
<!-- Add(Mul(Half(), sin(Mul(Symbol(x1), Symbol(y1)))), Mul(NegativeOne()c, Pow(Symbol(x), Integer(2))), Pow(Symbol(y), NegativeOne()p))&#45;&gt;Pow(Symbol(y), NegativeOne()p) -->
<g id="edge24" class="edge"><title>Add(Mul(Half(), sin(Mul(Symbol(x1), Symbol(y1)))), Mul(NegativeOne()c, Pow(Symbol(x), Integer(2))), Pow(Symbol(y), NegativeOne()p))&#45;&gt;Pow(Symbol(y), NegativeOne()p)</title>
<path fill="none" stroke="black" d="M337.696,-296.881C305.473,-284.272 247.126,-261.441 210.309,-247.034"/>
<polygon fill="black" stroke="black" points="211.576,-243.771 200.988,-243.387 209.025,-250.29 211.576,-243.771"/>
</g>
<!-- Add(Mul(Half(), sin(Mul(Symbol(x1), Symbol(y1)))), Mul(NegativeOne()c, Pow(Symbol(x), Integer(2))), Pow(Symbol(y), NegativeOne()p))&#45;&gt;Mul(Half(), sin(Mul(Symbol(x1), Symbol(y1)))) -->
<g id="edge26" class="edge"><title>Add(Mul(Half(), sin(Mul(Symbol(x1), Symbol(y1)))), Mul(NegativeOne()c, Pow(Symbol(x), Integer(2))), Pow(Symbol(y), NegativeOne()p))&#45;&gt;Mul(Half(), sin(Mul(Symbol(x1), Symbol(y1))))</title>
<path fill="none" stroke="black" d="M361,-287.831C361,-280.131 361,-270.974 361,-262.417"/>
<polygon fill="black" stroke="black" points="364.5,-262.413 361,-252.413 357.5,-262.413 364.5,-262.413"/>
</g>
<!-- Add(Mul(Half(), sin(Mul(Symbol(x1), Symbol(y1)))), Mul(NegativeOne()c, Pow(Symbol(x), Integer(2))), Pow(Symbol(y), NegativeOne()p))&#45;&gt;Mul(NegativeOne()c, Pow(Symbol(x), Integer(2))) -->
<g id="edge28" class="edge"><title>Add(Mul(Half(), sin(Mul(Symbol(x1), Symbol(y1)))), Mul(NegativeOne()c, Pow(Symbol(x), Integer(2))), Pow(Symbol(y), NegativeOne()p))&#45;&gt;Mul(NegativeOne()c, Pow(Symbol(x), Integer(2)))</title>
<path fill="none" stroke="black" d="M383.133,-295.376C408.613,-283.146 450.655,-262.965 479.531,-249.105"/>
<polygon fill="black" stroke="black" points="481.276,-252.15 488.776,-244.667 478.246,-245.839 481.276,-252.15"/>
</g>
</g>
</svg>
