<?xml version="1.0" encoding="UTF-8" standalone="no"?>
<!DOCTYPE svg PUBLIC "-//W3C//DTD SVG 1.1//EN"
 "http://www.w3.org/Graphics/SVG/1.1/DTD/svg11.dtd">
<!-- Generated by graphviz version 2.26.3 (20100126.1600)
 -->
<!-- Title: _anonymous_0 Pages: 1 -->
<svg width="482pt" height="188pt"
 viewBox="0.00 0.00 482.00 188.00" xmlns="http://www.w3.org/2000/svg" xmlns:xlink="http://www.w3.org/1999/xlink">
<g id="graph1" class="graph" transform="scale(1 1) rotate(0) translate(4 184)">
<title>_anonymous_0</title>
<polygon fill="white" stroke="white" points="-4,5 -4,-184 479,-184 479,5 -4,5"/>
<!-- Symbol(y) -->
<g id="node1" class="node"><title>Symbol(y)</title>
<ellipse fill="none" stroke="black" cx="54" cy="-18" rx="53.9452" ry="18"/>
<text text-anchor="middle" x="54" y="-12.9" font-family="Times,serif" font-size="14.00">Symbol(&#39;y&#39;)</text>
</g>
<!-- Symbol(x)1 -->
<g id="node2" class="node"><title>Symbol(x)1</title>
<ellipse fill="none" stroke="black" cx="180" cy="-18" rx="53.9452" ry="18"/>
<text text-anchor="middle" x="180" y="-12.9" font-family="Times,serif" font-size="14.00">Symbol(&#39;x&#39;)</text>
</g>
<!-- Symbol(x)2 -->
<g id="node3" class="node"><title>Symbol(x)2</title>
<ellipse fill="none" stroke="black" cx="306" cy="-18" rx="53.9452" ry="18"/>
<text text-anchor="middle" x="306" y="-12.9" font-family="Times,serif" font-size="14.00">Symbol(&#39;x&#39;)</text>
</g>
<!-- Integer(2) -->
<g id="node4" class="node"><title>Integer(2)</title>
<ellipse fill="none" stroke="black" cx="426" cy="-18" rx="48.0957" ry="18"/>
<text text-anchor="middle" x="426" y="-12.9" font-family="Times,serif" font-size="14.00">Integer(2)</text>
</g>
<!-- Mul(Symbol(x)1, Symbol(y)) -->
<g id="node5" class="node"><title>Mul(Symbol(x)1, Symbol(y))</title>
<ellipse fill="none" stroke="black" cx="180" cy="-90" rx="27" ry="18"/>
<text text-anchor="middle" x="180" y="-84.9" font-family="Times,serif" font-size="14.00">Mul</text>
</g>
<!-- Mul(Symbol(x)1, Symbol(y))&#45;&gt;Symbol(y) -->
<g id="edge4" class="edge"><title>Mul(Symbol(x)1, Symbol(y))&#45;&gt;Symbol(y)</title>
<path fill="none" stroke="black" d="M159.475,-78.2717C140.844,-67.6249 112.934,-51.6765 90.5036,-38.8592"/>
<polygon fill="black" stroke="black" points="92.002,-35.6843 81.5831,-33.7618 88.529,-41.7621 92.002,-35.6843"/>
</g>
<!-- Mul(Symbol(x)1, Symbol(y))&#45;&gt;Symbol(x)1 -->
<g id="edge2" class="edge"><title>Mul(Symbol(x)1, Symbol(y))&#45;&gt;Symbol(x)1</title>
<path fill="none" stroke="black" d="M180,-71.8314C180,-64.131 180,-54.9743 180,-46.4166"/>
<polygon fill="black" stroke="black" points="183.5,-46.4132 180,-36.4133 176.5,-46.4133 183.5,-46.4132"/>
</g>
<!-- Pow(Symbol(x)2, Integer(2)) -->
<g id="node6" class="node"><title>Pow(Symbol(x)2, Integer(2))</title>
<ellipse fill="none" stroke="black" cx="306" cy="-90" rx="27.9475" ry="18"/>
<text text-anchor="middle" x="306" y="-84.9" font-family="Times,serif" font-size="14.00">Pow</text>
</g>
<!-- Pow(Symbol(x)2, Integer(2))&#45;&gt;Symbol(x)2 -->
<g id="edge6" class="edge"><title>Pow(Symbol(x)2, Integer(2))&#45;&gt;Symbol(x)2</title>
<path fill="none" stroke="black" d="M306,-71.8314C306,-64.131 306,-54.9743 306,-46.4166"/>
<polygon fill="black" stroke="black" points="309.5,-46.4132 306,-36.4133 302.5,-46.4133 309.5,-46.4132"/>
</g>
<!-- Pow(Symbol(x)2, Integer(2))&#45;&gt;Integer(2) -->
<g id="edge8" class="edge"><title>Pow(Symbol(x)2, Integer(2))&#45;&gt;Integer(2)</title>
<path fill="none" stroke="black" d="M326.629,-77.6228C344.454,-66.9278 370.579,-51.2526 391.569,-38.6587"/>
<polygon fill="black" stroke="black" points="393.437,-41.6197 400.211,-33.4734 389.835,-35.6172 393.437,-41.6197"/>
</g>
<!-- Add(Mul(Symbol(x)1, Symbol(y)), Pow(Symbol(x)2, Integer(2))) -->
<g id="node7" class="node"><title>Add(Mul(Symbol(x)1, Symbol(y)), Pow(Symbol(x)2, Integer(2)))</title>
<ellipse fill="none" stroke="black" cx="243" cy="-162" rx="26.8013" ry="18"/>
<text text-anchor="middle" x="243" y="-156.9" font-family="Times,serif" font-size="14.00">Add</text>
</g>
<!-- Add(Mul(Symbol(x)1, Symbol(y)), Pow(Symbol(x)2, Integer(2)))&#45;&gt;Mul(Symbol(x)1, Symbol(y)) -->
<g id="edge12" class="edge"><title>Add(Mul(Symbol(x)1, Symbol(y)), Pow(Symbol(x)2, Integer(2)))&#45;&gt;Mul(Symbol(x)1, Symbol(y))</title>
<path fill="none" stroke="black" d="M229.33,-146.377C220.827,-136.659 209.739,-123.987 200.229,-113.119"/>
<polygon fill="black" stroke="black" points="202.862,-110.813 193.643,-105.592 197.594,-115.423 202.862,-110.813"/>
</g>
<!-- Add(Mul(Symbol(x)1, Symbol(y)), Pow(Symbol(x)2, Integer(2)))&#45;&gt;Pow(Symbol(x)2, Integer(2)) -->
<g id="edge10" class="edge"><title>Add(Mul(Symbol(x)1, Symbol(y)), Pow(Symbol(x)2, Integer(2)))&#45;&gt;Pow(Symbol(x)2, Integer(2))</title>
<path fill="none" stroke="black" d="M256.67,-146.377C264.975,-136.885 275.747,-124.575 285.104,-113.881"/>
<polygon fill="black" stroke="black" points="287.969,-115.922 291.92,-106.091 282.701,-111.312 287.969,-115.922"/>
</g>
</g>
</svg>
