<?xml version="1.0" encoding="UTF-8" standalone="no"?>
<!DOCTYPE svg PUBLIC "-//W3C//DTD SVG 1.1//EN"
 "http://www.w3.org/Graphics/SVG/1.1/DTD/svg11.dtd">
<!-- Generated by graphviz version 2.30.1 (20130221.2233)
 -->
<!-- Title: %3 Pages: 1 -->
<svg width="473pt" height="188pt"
 viewBox="0.00 0.00 473.00 188.00" xmlns="http://www.w3.org/2000/svg" xmlns:xlink="http://www.w3.org/1999/xlink">
<g id="graph0" class="graph" transform="scale(1 1) rotate(0) translate(4 184)">
<title>%3</title>
<polygon fill="white" stroke="white" points="-4,5 -4,-184 470,-184 470,5 -4,5"/>
<!-- Symbol(x)_(0, 0) -->
<g id="node1" class="node"><title>Symbol(x)_(0, 0)</title>
<ellipse fill="none" stroke="black" cx="294" cy="-18" rx="52.4675" ry="18"/>
<text text-anchor="middle" x="294" y="-14.3" font-family="Times,serif" font-size="14.00">Symbol(&#39;x&#39;)</text>
</g>
<!-- Symbol(y)_(1, 0) -->
<g id="node2" class="node"><title>Symbol(y)_(1, 0)</title>
<ellipse fill="none" stroke="black" cx="52" cy="-18" rx="52.4675" ry="18"/>
<text text-anchor="middle" x="52" y="-14.3" font-family="Times,serif" font-size="14.00">Symbol(&#39;y&#39;)</text>
</g>
<!-- NegativeOne()_(0, 1) -->
<g id="node3" class="node"><title>NegativeOne()_(0, 1)</title>
<ellipse fill="none" stroke="black" cx="415" cy="-18" rx="50.0684" ry="18"/>
<text text-anchor="middle" x="415" y="-14.3" font-family="Times,serif" font-size="14.00">Integer(&#45;1)</text>
</g>
<!-- NegativeOne()_(1, 1) -->
<g id="node4" class="node"><title>NegativeOne()_(1, 1)</title>
<ellipse fill="none" stroke="black" cx="173" cy="-18" rx="50.0684" ry="18"/>
<text text-anchor="middle" x="173" y="-14.3" font-family="Times,serif" font-size="14.00">Integer(&#45;1)</text>
</g>
<!-- Pow(Symbol(y), NegativeOne())_(1,) -->
<g id="node5" class="node"><title>Pow(Symbol(y), NegativeOne())_(1,)</title>
<ellipse fill="none" stroke="black" cx="173" cy="-90" rx="27" ry="18"/>
<text text-anchor="middle" x="173" y="-86.3" font-family="Times,serif" font-size="14.00">Pow</text>
</g>
<!-- Pow(Symbol(y), NegativeOne())_(1,)&#45;&gt;Symbol(y)_(1, 0) -->
<g id="edge2" class="edge"><title>Pow(Symbol(y), NegativeOne())_(1,)&#45;&gt;Symbol(y)_(1, 0)</title>
<path fill="none" stroke="black" d="M153.29,-77.5975C135.243,-67.1568 108.131,-51.4722 86.497,-38.9569"/>
<polygon fill="black" stroke="black" points="88.0118,-35.7898 77.6032,-33.8118 84.5065,-41.8489 88.0118,-35.7898"/>
</g>
<!-- Pow(Symbol(y), NegativeOne())_(1,)&#45;&gt;NegativeOne()_(1, 1) -->
<g id="edge3" class="edge"><title>Pow(Symbol(y), NegativeOne())_(1,)&#45;&gt;NegativeOne()_(1, 1)</title>
<path fill="none" stroke="black" d="M173,-71.6966C173,-63.9827 173,-54.7125 173,-46.1124"/>
<polygon fill="black" stroke="black" points="176.5,-46.1043 173,-36.1043 169.5,-46.1044 176.5,-46.1043"/>
</g>
<!-- Pow(Symbol(x), NegativeOne())_(0,) -->
<g id="node6" class="node"><title>Pow(Symbol(x), NegativeOne())_(0,)</title>
<ellipse fill="none" stroke="black" cx="294" cy="-90" rx="27" ry="18"/>
<text text-anchor="middle" x="294" y="-86.3" font-family="Times,serif" font-size="14.00">Pow</text>
</g>
<!-- Pow(Symbol(x), NegativeOne())_(0,)&#45;&gt;Symbol(x)_(0, 0) -->
<g id="edge1" class="edge"><title>Pow(Symbol(x), NegativeOne())_(0,)&#45;&gt;Symbol(x)_(0, 0)</title>
<path fill="none" stroke="black" d="M294,-71.6966C294,-63.9827 294,-54.7125 294,-46.1124"/>
<polygon fill="black" stroke="black" points="297.5,-46.1043 294,-36.1043 290.5,-46.1044 297.5,-46.1043"/>
</g>
<!-- Pow(Symbol(x), NegativeOne())_(0,)&#45;&gt;NegativeOne()_(0, 1) -->
<g id="edge4" class="edge"><title>Pow(Symbol(x), NegativeOne())_(0,)&#45;&gt;NegativeOne()_(0, 1)</title>
<path fill="none" stroke="black" d="M313.71,-77.5975C331.875,-67.089 359.222,-51.2683 380.924,-38.7135"/>
<polygon fill="black" stroke="black" points="382.932,-41.595 389.836,-33.5578 379.427,-35.5359 382.932,-41.595"/>
</g>
<!-- Mul(Pow(Symbol(x), NegativeOne()), Pow(Symbol(y), NegativeOne()))_() -->
<g id="node7" class="node"><title>Mul(Pow(Symbol(x), NegativeOne()), Pow(Symbol(y), NegativeOne()))_()</title>
<ellipse fill="none" stroke="black" cx="233" cy="-162" rx="27" ry="18"/>
<text text-anchor="middle" x="233" y="-158.3" font-family="Times,serif" font-size="14.00">Mul</text>
</g>
<!-- Mul(Pow(Symbol(x), NegativeOne()), Pow(Symbol(y), NegativeOne()))_()&#45;&gt;Pow(Symbol(y), NegativeOne())_(1,) -->
<g id="edge5" class="edge"><title>Mul(Pow(Symbol(x), NegativeOne()), Pow(Symbol(y), NegativeOne()))_()&#45;&gt;Pow(Symbol(y), NegativeOne())_(1,)</title>
<path fill="none" stroke="black" d="M219.981,-145.811C211.961,-136.455 201.527,-124.282 192.53,-113.785"/>
<polygon fill="black" stroke="black" points="195.159,-111.474 185.994,-106.159 189.844,-116.03 195.159,-111.474"/>
</g>
<!-- Mul(Pow(Symbol(x), NegativeOne()), Pow(Symbol(y), NegativeOne()))_()&#45;&gt;Pow(Symbol(x), NegativeOne())_(0,) -->
<g id="edge6" class="edge"><title>Mul(Pow(Symbol(x), NegativeOne()), Pow(Symbol(y), NegativeOne()))_()&#45;&gt;Pow(Symbol(x), NegativeOne())_(0,)</title>
<path fill="none" stroke="black" d="M245.937,-146.155C254.186,-136.689 265.035,-124.238 274.338,-113.563"/>
<polygon fill="black" stroke="black" points="277.151,-115.662 281.082,-105.824 271.874,-111.063 277.151,-115.662"/>
</g>
</g>
</svg>
