<?xml version="1.0" encoding="UTF-8" standalone="no"?>
<!DOCTYPE svg PUBLIC "-//W3C//DTD SVG 1.1//EN"
 "http://www.w3.org/Graphics/SVG/1.1/DTD/svg11.dtd">
<!-- Generated by graphviz version 2.30.1 (20130221.2233)
 -->
<!-- Title: %3 Pages: 1 -->
<svg width="469pt" height="188pt"
 viewBox="0.00 0.00 469.00 188.00" xmlns="http://www.w3.org/2000/svg" xmlns:xlink="http://www.w3.org/1999/xlink">
<g id="graph0" class="graph" transform="scale(1 1) rotate(0) translate(4 184)">
<title>%3</title>
<polygon fill="white" stroke="white" points="-4,5 -4,-184 466,-184 466,5 -4,5"/>
<!-- Symbol(y) -->
<g id="node1" class="node"><title>Symbol(y)</title>
<ellipse fill="none" stroke="black" cx="409" cy="-18" rx="52.4675" ry="18"/>
<text text-anchor="middle" x="409" y="-14.3" font-family="Times,serif" font-size="14.00">Symbol(&#39;y&#39;)</text>
</g>
<!-- Symbol(x)1 -->
<g id="node2" class="node"><title>Symbol(x)1</title>
<ellipse fill="none" stroke="black" cx="286" cy="-18" rx="52.4675" ry="18"/>
<text text-anchor="middle" x="286" y="-14.3" font-family="Times,serif" font-size="14.00">Symbol(&#39;x&#39;)</text>
</g>
<!-- Symbol(x)2 -->
<g id="node3" class="node"><title>Symbol(x)2</title>
<ellipse fill="none" stroke="black" cx="52" cy="-18" rx="52.4675" ry="18"/>
<text text-anchor="middle" x="52" y="-14.3" font-family="Times,serif" font-size="14.00">Symbol(&#39;x&#39;)</text>
</g>
<!-- Integer(2) -->
<g id="node4" class="node"><title>Integer(2)</title>
<ellipse fill="none" stroke="black" cx="169" cy="-18" rx="46.1964" ry="18"/>
<text text-anchor="middle" x="169" y="-14.3" font-family="Times,serif" font-size="14.00">Integer(2)</text>
</g>
<!-- Mul(Symbol(x)1, Symbol(y)) -->
<g id="node5" class="node"><title>Mul(Symbol(x)1, Symbol(y))</title>
<ellipse fill="none" stroke="black" cx="286" cy="-90" rx="27" ry="18"/>
<text text-anchor="middle" x="286" y="-86.3" font-family="Times,serif" font-size="14.00">Mul</text>
</g>
<!-- Mul(Symbol(x)1, Symbol(y))&#45;&gt;Symbol(x)1 -->
<g id="edge1" class="edge"><title>Mul(Symbol(x)1, Symbol(y))&#45;&gt;Symbol(x)1</title>
<path fill="none" stroke="black" d="M286,-71.6966C286,-63.9827 286,-54.7125 286,-46.1124"/>
<polygon fill="black" stroke="black" points="289.5,-46.1043 286,-36.1043 282.5,-46.1044 289.5,-46.1043"/>
</g>
<!-- Mul(Symbol(x)1, Symbol(y))&#45;&gt;Symbol(y) -->
<g id="edge2" class="edge"><title>Mul(Symbol(x)1, Symbol(y))&#45;&gt;Symbol(y)</title>
<path fill="none" stroke="black" d="M306.036,-77.5975C324.463,-67.1102 352.188,-51.3321 374.227,-38.7895"/>
<polygon fill="black" stroke="black" points="376.014,-41.7999 382.974,-33.8118 372.551,-35.7161 376.014,-41.7999"/>
</g>
<!-- Pow(Symbol(x)2, Integer(2)) -->
<g id="node6" class="node"><title>Pow(Symbol(x)2, Integer(2))</title>
<ellipse fill="none" stroke="black" cx="169" cy="-90" rx="27" ry="18"/>
<text text-anchor="middle" x="169" y="-86.3" font-family="Times,serif" font-size="14.00">Pow</text>
</g>
<!-- Pow(Symbol(x)2, Integer(2))&#45;&gt;Symbol(x)2 -->
<g id="edge3" class="edge"><title>Pow(Symbol(x)2, Integer(2))&#45;&gt;Symbol(x)2</title>
<path fill="none" stroke="black" d="M149.417,-77.2836C132.077,-66.9091 106.388,-51.5397 85.743,-39.1881"/>
<polygon fill="black" stroke="black" points="87.331,-36.0596 76.9526,-33.9289 83.737,-42.0666 87.331,-36.0596"/>
</g>
<!-- Pow(Symbol(x)2, Integer(2))&#45;&gt;Integer(2) -->
<g id="edge4" class="edge"><title>Pow(Symbol(x)2, Integer(2))&#45;&gt;Integer(2)</title>
<path fill="none" stroke="black" d="M169,-71.6966C169,-63.9827 169,-54.7125 169,-46.1124"/>
<polygon fill="black" stroke="black" points="172.5,-46.1043 169,-36.1043 165.5,-46.1044 172.5,-46.1043"/>
</g>
<!-- Add(Mul(Symbol(x)1, Symbol(y)), Pow(Symbol(x)2, Integer(2))) -->
<g id="node7" class="node"><title>Add(Mul(Symbol(x)1, Symbol(y)), Pow(Symbol(x)2, Integer(2)))</title>
<ellipse fill="none" stroke="black" cx="227" cy="-162" rx="27" ry="18"/>
<text text-anchor="middle" x="227" y="-158.3" font-family="Times,serif" font-size="14.00">Add</text>
</g>
<!-- Add(Mul(Symbol(x)1, Symbol(y)), Pow(Symbol(x)2, Integer(2)))&#45;&gt;Pow(Symbol(x)2, Integer(2)) -->
<g id="edge5" class="edge"><title>Add(Mul(Symbol(x)1, Symbol(y)), Pow(Symbol(x)2, Integer(2)))&#45;&gt;Pow(Symbol(x)2, Integer(2))</title>
<path fill="none" stroke="black" d="M214.415,-145.811C206.738,-136.546 196.774,-124.52 188.135,-114.094"/>
<polygon fill="black" stroke="black" points="190.636,-111.626 181.561,-106.159 185.246,-116.093 190.636,-111.626"/>
</g>
<!-- Add(Mul(Symbol(x)1, Symbol(y)), Pow(Symbol(x)2, Integer(2)))&#45;&gt;Mul(Symbol(x)1, Symbol(y)) -->
<g id="edge6" class="edge"><title>Add(Mul(Symbol(x)1, Symbol(y)), Pow(Symbol(x)2, Integer(2)))&#45;&gt;Mul(Symbol(x)1, Symbol(y))</title>
<path fill="none" stroke="black" d="M239.802,-145.811C247.611,-136.546 257.747,-124.52 266.535,-114.094"/>
<polygon fill="black" stroke="black" points="269.454,-116.061 273.223,-106.159 264.102,-111.55 269.454,-116.061"/>
</g>
</g>
</svg>
