<?xml version="1.0" encoding="UTF-8" standalone="no"?>
<!DOCTYPE svg PUBLIC "-//W3C//DTD SVG 1.1//EN"
 "http://www.w3.org/Graphics/SVG/1.1/DTD/svg11.dtd">
<!-- Generated by graphviz version 2.26.3 (20100126.1600)
 -->
<!-- Title: _anonymous_0 Pages: 1 -->
<svg width="171pt" height="188pt"
 viewBox="0.00 0.00 171.00 188.00" xmlns="http://www.w3.org/2000/svg" xmlns:xlink="http://www.w3.org/1999/xlink">
<g id="graph1" class="graph" transform="scale(1 1) rotate(0) translate(4 184)">
<title>_anonymous_0</title>
<polygon fill="white" stroke="white" points="-4,5 -4,-184 168,-184 168,5 -4,5"/>
<!-- Symbol(x) -->
<g id="node1" class="node"><title>Symbol(x)</title>
<ellipse fill="none" stroke="black" cx="27" cy="-90" rx="27" ry="18"/>
<text text-anchor="middle" x="27" y="-84.9" font-family="Times,serif" font-size="14.00">x</text>
</g>
<!-- Symbol(y) -->
<g id="node2" class="node"><title>Symbol(y)</title>
<ellipse fill="none" stroke="black" cx="64" cy="-18" rx="27" ry="18"/>
<text text-anchor="middle" x="64" y="-12.9" font-family="Times,serif" font-size="14.00">y</text>
</g>
<!-- NegativeOne() -->
<g id="node3" class="node"><title>NegativeOne()</title>
<ellipse fill="none" stroke="black" cx="136" cy="-18" rx="27" ry="18"/>
<text text-anchor="middle" x="136" y="-12.9" font-family="Times,serif" font-size="14.00">&#45;1</text>
</g>
<!-- Pow(Symbol(y), NegativeOne()) -->
<g id="node4" class="node"><title>Pow(Symbol(y), NegativeOne())</title>
<ellipse fill="none" stroke="black" cx="100" cy="-90" rx="27.9475" ry="18"/>
<text text-anchor="middle" x="100" y="-84.9" font-family="Times,serif" font-size="14.00">Pow</text>
</g>
<!-- Pow(Symbol(y), NegativeOne())&#45;&gt;Symbol(y) -->
<g id="edge2" class="edge"><title>Pow(Symbol(y), NegativeOne())&#45;&gt;Symbol(y)</title>
<path fill="none" stroke="black" d="M91.2854,-72.5708C87.0403,-64.0807 81.8464,-53.6929 77.1337,-44.2674"/>
<polygon fill="black" stroke="black" points="80.237,-42.6477 72.6343,-35.2687 73.976,-45.7782 80.237,-42.6477"/>
</g>
<!-- Pow(Symbol(y), NegativeOne())&#45;&gt;NegativeOne() -->
<g id="edge4" class="edge"><title>Pow(Symbol(y), NegativeOne())&#45;&gt;NegativeOne()</title>
<path fill="none" stroke="black" d="M108.715,-72.5708C112.96,-64.0807 118.154,-53.6929 122.866,-44.2674"/>
<polygon fill="black" stroke="black" points="126.024,-45.7782 127.366,-35.2687 119.763,-42.6477 126.024,-45.7782"/>
</g>
<!-- Mul(Symbol(x), Pow(Symbol(y), NegativeOne())) -->
<g id="node5" class="node"><title>Mul(Symbol(x), Pow(Symbol(y), NegativeOne()))</title>
<ellipse fill="none" stroke="black" cx="63" cy="-162" rx="27" ry="18"/>
<text text-anchor="middle" x="63" y="-156.9" font-family="Times,serif" font-size="14.00">Mul</text>
</g>
<!-- Mul(Symbol(x), Pow(Symbol(y), NegativeOne()))&#45;&gt;Symbol(x) -->
<g id="edge6" class="edge"><title>Mul(Symbol(x), Pow(Symbol(y), NegativeOne()))&#45;&gt;Symbol(x)</title>
<path fill="none" stroke="black" d="M54.2854,-144.571C50.0403,-136.081 44.8464,-125.693 40.1337,-116.267"/>
<polygon fill="black" stroke="black" points="43.237,-114.648 35.6343,-107.269 36.976,-117.778 43.237,-114.648"/>
</g>
<!-- Mul(Symbol(x), Pow(Symbol(y), NegativeOne()))&#45;&gt;Pow(Symbol(y), NegativeOne()) -->
<g id="edge8" class="edge"><title>Mul(Symbol(x), Pow(Symbol(y), NegativeOne()))&#45;&gt;Pow(Symbol(y), NegativeOne())</title>
<path fill="none" stroke="black" d="M71.7685,-144.937C76.1279,-136.454 81.4953,-126.009 86.3753,-116.513"/>
<polygon fill="black" stroke="black" points="89.5797,-117.935 91.0374,-107.441 83.3537,-114.735 89.5797,-117.935"/>
</g>
</g>
</svg>
