<?xml version="1.0" encoding="UTF-8" standalone="no"?>
<!DOCTYPE svg PUBLIC "-//W3C//DTD SVG 1.1//EN"
 "http://www.w3.org/Graphics/SVG/1.1/DTD/svg11.dtd">
<!-- Generated by graphviz version 2.26.3 (20100126.1600)
 -->
<!-- Title: _anonymous_0 Pages: 1 -->
<svg width="274pt" height="188pt"
 viewBox="0.00 0.00 274.00 188.00" xmlns="http://www.w3.org/2000/svg" xmlns:xlink="http://www.w3.org/1999/xlink">
<g id="graph1" class="graph" transform="scale(1 1) rotate(0) translate(4 184)">
<title>_anonymous_0</title>
<polygon fill="white" stroke="white" points="-4,5 -4,-184 271,-184 271,5 -4,5"/>
<!-- Symbol(x) -->
<g id="node1" class="node"><title>Symbol(x)</title>
<ellipse fill="none" stroke="black" cx="54" cy="-90" rx="53.9452" ry="18"/>
<text text-anchor="middle" x="54" y="-84.9" font-family="Times,serif" font-size="14.00">Symbol(&#39;x&#39;)</text>
</g>
<!-- Symbol(y) -->
<g id="node2" class="node"><title>Symbol(y)</title>
<ellipse fill="none" stroke="black" cx="92" cy="-18" rx="53.9452" ry="18"/>
<text text-anchor="middle" x="92" y="-12.9" font-family="Times,serif" font-size="14.00">Symbol(&#39;y&#39;)</text>
</g>
<!-- NegativeOne() -->
<g id="node3" class="node"><title>NegativeOne()</title>
<ellipse fill="none" stroke="black" cx="215" cy="-18" rx="50.8469" ry="18"/>
<text text-anchor="middle" x="215" y="-12.9" font-family="Times,serif" font-size="14.00">Integer(&#45;1)</text>
</g>
<!-- Pow(Symbol(y), NegativeOne()) -->
<g id="node4" class="node"><title>Pow(Symbol(y), NegativeOne())</title>
<ellipse fill="none" stroke="black" cx="154" cy="-90" rx="27.9475" ry="18"/>
<text text-anchor="middle" x="154" y="-84.9" font-family="Times,serif" font-size="14.00">Pow</text>
</g>
<!-- Pow(Symbol(y), NegativeOne())&#45;&gt;Symbol(y) -->
<g id="edge2" class="edge"><title>Pow(Symbol(y), NegativeOne())&#45;&gt;Symbol(y)</title>
<path fill="none" stroke="black" d="M140.24,-74.0209C132.471,-64.9983 122.583,-53.5157 113.785,-43.2982"/>
<polygon fill="black" stroke="black" points="116.201,-40.7403 107.023,-35.4464 110.896,-45.308 116.201,-40.7403"/>
</g>
<!-- Pow(Symbol(y), NegativeOne())&#45;&gt;NegativeOne() -->
<g id="edge4" class="edge"><title>Pow(Symbol(y), NegativeOne())&#45;&gt;NegativeOne()</title>
<path fill="none" stroke="black" d="M167.538,-74.0209C175.182,-64.9983 184.91,-53.5157 193.567,-43.2982"/>
<polygon fill="black" stroke="black" points="196.425,-45.3388 200.219,-35.4464 191.084,-40.8138 196.425,-45.3388"/>
</g>
<!-- Mul(Symbol(x), Pow(Symbol(y), NegativeOne())) -->
<g id="node5" class="node"><title>Mul(Symbol(x), Pow(Symbol(y), NegativeOne()))</title>
<ellipse fill="none" stroke="black" cx="104" cy="-162" rx="27" ry="18"/>
<text text-anchor="middle" x="104" y="-156.9" font-family="Times,serif" font-size="14.00">Mul</text>
</g>
<!-- Mul(Symbol(x), Pow(Symbol(y), NegativeOne()))&#45;&gt;Symbol(x) -->
<g id="edge6" class="edge"><title>Mul(Symbol(x), Pow(Symbol(y), NegativeOne()))&#45;&gt;Symbol(x)</title>
<path fill="none" stroke="black" d="M92.6542,-145.662C86.5928,-136.934 78.9865,-125.981 72.1283,-116.105"/>
<polygon fill="black" stroke="black" points="74.9303,-114.004 66.3515,-107.786 69.1807,-117.996 74.9303,-114.004"/>
</g>
<!-- Mul(Symbol(x), Pow(Symbol(y), NegativeOne()))&#45;&gt;Pow(Symbol(y), NegativeOne()) -->
<g id="edge8" class="edge"><title>Mul(Symbol(x), Pow(Symbol(y), NegativeOne()))&#45;&gt;Pow(Symbol(y), NegativeOne())</title>
<path fill="none" stroke="black" d="M115.346,-145.662C121.586,-136.677 129.462,-125.334 136.475,-115.236"/>
<polygon fill="black" stroke="black" points="139.523,-116.983 142.352,-106.773 133.773,-112.99 139.523,-116.983"/>
</g>
</g>
</svg>
