<?xml version="1.0" encoding="UTF-8" standalone="no"?>
<!DOCTYPE svg PUBLIC "-//W3C//DTD SVG 1.1//EN"
 "http://www.w3.org/Graphics/SVG/1.1/DTD/svg11.dtd">
<!-- Generated by graphviz version 2.26.3 (20100126.1600)
 -->
<!-- Title: _anonymous_0 Pages: 1 -->
<svg width="324pt" height="194pt"
 viewBox="0.00 0.00 324.00 194.00" xmlns="http://www.w3.org/2000/svg" xmlns:xlink="http://www.w3.org/1999/xlink">
<g id="graph1" class="graph" transform="scale(1 1) rotate(0) translate(4 190)">
<title>_anonymous_0</title>
<polygon fill="white" stroke="white" points="-4,5 -4,-190 321,-190 321,5 -4,5"/>
<!-- Symbol(x)_(1,) -->
<g id="node1" class="node"><title>Symbol(x)_(1,)</title>
<ellipse fill="none" stroke="black" cx="65" cy="-93" rx="65.0538" ry="18.3848"/>
<text text-anchor="middle" x="65" y="-89.4" font-family="Times Roman,serif" font-size="14.00">Symbol(&#39;x&#39;)</text>
</g>
<!-- Symbol(y)_(0, 1) -->
<g id="node2" class="node"><title>Symbol(y)_(0, 1)</title>
<ellipse fill="none" stroke="black" cx="103" cy="-19" rx="65.0538" ry="18.3848"/>
<text text-anchor="middle" x="103" y="-15.4" font-family="Times Roman,serif" font-size="14.00">Symbol(&#39;y&#39;)</text>
</g>
<!-- NegativeOne()_(0, 0) -->
<g id="node3" class="node"><title>NegativeOne()_(0, 0)</title>
<ellipse fill="none" stroke="black" cx="251" cy="-19" rx="65.0538" ry="18.3848"/>
<text text-anchor="middle" x="251" y="-15.4" font-family="Times Roman,serif" font-size="14.00">Integer(&#45;1)</text>
</g>
<!-- Mul(NegativeOne(), Symbol(y))_(0,) -->
<g id="node4" class="node"><title>Mul(NegativeOne(), Symbol(y))_(0,)</title>
<ellipse fill="none" stroke="black" cx="177" cy="-93" rx="28.9914" ry="18.3848"/>
<text text-anchor="middle" x="177" y="-89.4" font-family="Times Roman,serif" font-size="14.00">Mul</text>
</g>
<!-- Mul(NegativeOne(), Symbol(y))_(0,)&#45;&gt;Symbol(y)_(0, 1) -->
<g id="edge2" class="edge"><title>Mul(NegativeOne(), Symbol(y))_(0,)&#45;&gt;Symbol(y)_(0, 1)</title>
<path fill="none" stroke="black" d="M161.307,-77.3065C151.724,-67.7236 139.248,-55.248 128.297,-44.2972"/>
<polygon fill="black" stroke="black" points="130.56,-41.6099 121.014,-37.0137 125.61,-46.5597 130.56,-41.6099"/>
</g>
<!-- Mul(NegativeOne(), Symbol(y))_(0,)&#45;&gt;NegativeOne()_(0, 0) -->
<g id="edge4" class="edge"><title>Mul(NegativeOne(), Symbol(y))_(0,)&#45;&gt;NegativeOne()_(0, 0)</title>
<path fill="none" stroke="black" d="M192.693,-77.3065C202.276,-67.7236 214.752,-55.248 225.703,-44.2972"/>
<polygon fill="black" stroke="black" points="228.39,-46.5597 232.986,-37.0137 223.44,-41.6099 228.39,-46.5597"/>
</g>
<!-- Add(Mul(NegativeOne(), Symbol(y)), Symbol(x))_() -->
<g id="node5" class="node"><title>Add(Mul(NegativeOne(), Symbol(y)), Symbol(x))_()</title>
<ellipse fill="none" stroke="black" cx="121" cy="-167" rx="29.9071" ry="18.3848"/>
<text text-anchor="middle" x="121" y="-163.4" font-family="Times Roman,serif" font-size="14.00">Add</text>
</g>
<!-- Add(Mul(NegativeOne(), Symbol(y)), Symbol(x))_()&#45;&gt;Symbol(x)_(1,) -->
<g id="edge6" class="edge"><title>Add(Mul(NegativeOne(), Symbol(y)), Symbol(x))_()&#45;&gt;Symbol(x)_(1,)</title>
<path fill="none" stroke="black" d="M108.293,-150.208C101.435,-141.147 92.8126,-129.752 85.0712,-119.523"/>
<polygon fill="black" stroke="black" points="87.6591,-117.142 78.8337,-111.28 82.0773,-121.366 87.6591,-117.142"/>
</g>
<!-- Add(Mul(NegativeOne(), Symbol(y)), Symbol(x))_()&#45;&gt;Mul(NegativeOne(), Symbol(y))_(0,) -->
<g id="edge8" class="edge"><title>Add(Mul(NegativeOne(), Symbol(y)), Symbol(x))_()&#45;&gt;Mul(NegativeOne(), Symbol(y))_(0,)</title>
<path fill="none" stroke="black" d="M133.707,-150.208C140.939,-140.652 150.134,-128.502 158.188,-117.859"/>
<polygon fill="black" stroke="black" points="161.099,-119.811 164.343,-109.725 155.518,-115.587 161.099,-119.811"/>
</g>
</g>
</svg>
